  0
SECTION
  2
HEADER
  9
$ACADVER
  1
AC1009
  9
$INSBASE
 10
0.0
 20
0.0
 30
0.0
  9
$EXTMIN
 10
0.0
 20
0.0
 30
0.0
  9
$EXTMAX
 10
1000.0
 20
1000.0
 30
1000.0
  9
$LIMMIN
 10
0.0
 20
0.0
  9
$LIMMAX
 10
420.0
 20
297.0
  9
$ORTHOMODE
 70
     0
  9
$REGENMODE
 70
     1
  9
$FILLMODE
 70
     1
  9
$QTEXTMODE
 70
     0
  9
$MIRRTEXT
 70
     0
  9
$DRAGMODE
 70
     2
  9
$LTSCALE
 40
1.0
  9
$OSMODE
 70
   431
  9
$ATTMODE
 70
     1
  9
$TEXTSIZE
 40
2.5
  9
$TRACEWID
 40
1.0
  9
$TEXTSTYLE
  7
STANDARD
  9
$CLAYER
  8
0
  9
$CELTYPE
  6
BYLAYER
  9
$CECOLOR
 62
   256
  9
$DIMSCALE
 40
1.0
  9
$DIMASZ
 40
2.5
  9
$DIMEXO
 40
0.625
  9
$DIMDLI
 40
3.75
  9
$DIMRND
 40
0.0
  9
$DIMDLE
 40
0.0
  9
$DIMEXE
 40
1.25
  9
$DIMTP
 40
0.0
  9
$DIMTM
 40
0.0
  9
$DIMTXT
 40
2.5
  9
$DIMCEN
 40
2.5
  9
$DIMTSZ
 40
0.0
  9
$DIMTOL
 70
     0
  9
$DIMLIM
 70
     0
  9
$DIMTIH
 70
     0
  9
$DIMTOH
 70
     0
  9
$DIMSE1
 70
     0
  9
$DIMSE2
 70
     0
  9
$DIMTAD
 70
     1
  9
$DIMZIN
 70
     8
  9
$DIMBLK
  1

  9
$DIMASO
 70
     1
  9
$DIMSHO
 70
     1
  9
$DIMPOST
  1

  9
$DIMAPOST
  1

  9
$DIMALT
 70
     0
  9
$DIMALTD
 70
     3
  9
$DIMALTF
 40
0.03937007874016
  9
$DIMLFAC
 40
1.0
  9
$DIMTOFL
 70
     1
  9
$DIMTVP
 40
0.0
  9
$DIMTIX
 70
     0
  9
$DIMSOXD
 70
     0
  9
$DIMSAH
 70
     0
  9
$DIMBLK1
  1

  9
$DIMBLK2
  1

  9
$DIMSTYLE
  2
ISO-25
  9
$DIMCLRD
 70
     0
  9
$DIMCLRE
 70
     0
  9
$DIMCLRT
 70
     0
  9
$DIMTFAC
 40
1.0
  9
$DIMGAP
 40
0.625
  9
$LUNITS
 70
     2
  9
$LUPREC
 70
     4
  9
$SKETCHINC
 40
1.0
  9
$FILLETRAD
 40
0.0
  9
$AUNITS
 70
     0
  9
$AUPREC
 70
     0
  9
$MENU
  1
.
  9
$ELEVATION
 40
0.0
  9
$PELEVATION
 40
0.0
  9
$THICKNESS
 40
0.0
  9
$LIMCHECK
 70
     0
  9
$BLIPMODE
 70
     0
  9
$CHAMFERA
 40
0.0
  9
$CHAMFERB
 40
0.0
  9
$SKPOLY
 70
     0
  9
$TDCREATE
 40
2457427.4363390398
  9
$TDUPDATE
 40
2457472.3294376968
  9
$TDINDWG
 40
0.0052813079
  9
$TDUSRTIMER
 40
0.0052811111
  9
$USRTIMER
 70
     1
  9
$ANGBASE
 50
0.0
  9
$ANGDIR
 70
     0
  9
$PDMODE
 70
     0
  9
$PDSIZE
 40
0.0
  9
$PLINEWID
 40
0.0
  9
$COORDS
 70
     1
  9
$SPLFRAME
 70
     0
  9
$SPLINETYPE
 70
     6
  9
$SPLINESEGS
 70
     8
  9
$ATTDIA
 70
     1
  9
$ATTREQ
 70
     1
  9
$HANDLING
 70
     1
  9
$HANDSEED
  5
7fffffff
  9
$SURFTAB1
 70
     6
  9
$SURFTAB2
 70
     6
  9
$SURFTYPE
 70
     6
  9
$SURFU
 70
     6
  9
$SURFV
 70
     6
  9
$UCSNAME
  2

  9
$UCSORG
 10
0.0
 20
0.0
 30
0.0
  9
$UCSXDIR
 10
1.0
 20
0.0
 30
0.0
  9
$UCSYDIR
 10
0.0
 20
1.0
 30
0.0
  9
$PUCSNAME
  2

  9
$PUCSORG
 10
0.0
 20
0.0
 30
0.0
  9
$PUCSXDIR
 10
1.0
 20
0.0
 30
0.0
  9
$PUCSYDIR
 10
0.0
 20
1.0
 30
0.0
  9
$USERI1
 70
     0
  9
$USERI2
 70
     0
  9
$USERI3
 70
     0
  9
$USERI4
 70
     0
  9
$USERI5
 70
     0
  9
$USERR1
 40
0.0
  9
$USERR2
 40
0.0
  9
$USERR3
 40
0.0
  9
$USERR4
 40
0.0
  9
$USERR5
 40
0.0
  9
$WORLDVIEW
 70
     1
  9
$SHADEDGE
 70
     3
  9
$SHADEDIF
 70
    70
  9
$TILEMODE
 70
     1
  9
$MAXACTVP
 70
    64
  9
$PLIMCHECK
 70
     0
  9
$PEXTMIN
 10
0.0
 20
0.0
 30
0.0
  9
$PEXTMAX
 10
0.0
 20
0.0
 30
0.0
  9
$PLIMMIN
 10
0.0
 20
0.0
  9
$PLIMMAX
 10
12.0
 20
9.0
  9
$UNITMODE
 70
     0
  9
$VISRETAIN
 70
     1
  9
$PLINEGEN
 70
     0
  9
$PSLTSCALE
 70
     1
  0
ENDSEC
  0
SECTION
  2
TABLES
  0
TABLE
  2
VPORT
 70
     1
  0
VPORT
  2
*ACTIVE
 70
     0
 10
0.0
 20
0.0
 11
1.0
 21
1.0
 12
732.19643306499665
 22
904.2969244557911
 13
0.0
 23
0.0
 14
10.0
 24
10.0
 15
10.0
 25
10.0
 16
0.0
 26
0.0
 36
1.0
 17
0.0
 27
0.0
 37
0.0
 40
3265.2638853074131
 41
1.1347773766546321
 42
50.0
 43
0.0
 44
0.0
 50
0.0
 51
0.0
 71
     0
 72
  1000
 73
     1
 74
     3
 75
     0
 76
     1
 77
     0
 78
     0
  0
ENDTAB
  0
TABLE
  2
LTYPE
 70
     2
  0
LTYPE
  2
CONTINUOUS
 70
     0
  3
Solid line
 72
    65
 73
     0
 40
0.0
  0
LTYPE
  2
CENTER
 70
     0
  3
Center ____ _ ____ _ ____ _ ____ _ ____ _ ____
 72
    65
 73
     4
 40
2.0
 49
1.25
 49
-0.25
 49
0.25
 49
-0.25
  0
ENDTAB
  0
TABLE
  2
LAYER
 70
     2
  0
LAYER
  2
0
 70
     0
 62
     7
  6
CONTINUOUS
  0
LAYER
  2
AAAAAAALAYER
 70
     0
 62
     7
  6
CONTINUOUS
  0
ENDTAB
  0
TABLE
  2
STYLE
 70
     2
  0
STYLE
  2
STANDARD
 70
     0
 40
0.0
 41
1.0
 50
0.0
 71
     0
 42
2.5
  3
txt
  4

  0
STYLE
  2
ANNOTATIVE
 70
     0
 40
0.0
 41
1.0
 50
0.0
 71
     0
 42
2.5
  3
txt
  4

  0
ENDTAB
  0
TABLE
  2
VIEW
 70
     0
  0
ENDTAB
  0
TABLE
  2
UCS
 70
     0
  0
ENDTAB
  0
TABLE
  2
APPID
 70
    13
  0
APPID
  2
ACAD
 70
     0
  0
APPID
  2
ACAD_PSEXT
 70
     0
  0
APPID
  2
ACADANNOPO
 70
     0
  0
APPID
  2
ACADANNOTATIVE
 70
     0
  0
APPID
  2
ACAD_DSTYLE_DIMJAG
 70
     0
  0
APPID
  2
ACAD_DSTYLE_DIMTALN
 70
     0
  0
APPID
  2
ACAD_MLEADERVER
 70
     0
  0
APPID
  2
ACAD_NAV_VCDISPLAY
 70
     0
  0
APPID
  2
ACAD_DSTYLE_DIMJOGGED_JOGA
 70
     0
  0
APPID
  2
ACAD_DSTYLE_DIMARC_LENGTH_
 70
     0
  0
APPID
  2
ACAD_DSTYLE_DIMEXT_LENGTH
 70
     0
  0
APPID
  2
ACAECLAYERSTANDARD
 70
     0
  0
APPID
  2
ACCMTRANSPARENCY
 70
     0
  0
ENDTAB
  0
TABLE
  2
DIMSTYLE
 70
     4
  0
DIMSTYLE
  2
STANDARD
 70
     0
  3

  4

  5

  6

  7

 40
1.0
 41
0.18
 42
0.0625
 43
0.38
 44
0.18
 45
0.0
 46
0.0
 47
0.0
 48
0.0
140
0.18
141
0.09
142
0.0
143
25.399999999999999
144
1.0
145
0.0
146
1.0
147
0.09
 71
     0
 72
     0
 73
     1
 74
     1
 75
     0
 76
     0
 77
     0
 78
     0
170
     0
171
     2
172
     0
173
     0
174
     0
175
     0
176
     0
177
     0
178
     0
  0
DIMSTYLE
  2
ANNOTATIVE
 70
     0
  3

  4

  5

  6

  7

 40
0.0
 41
2.5
 42
0.625
 43
3.75
 44
1.25
 45
0.0
 46
0.0
 47
0.0
 48
0.0
140
2.5
141
2.5
142
0.0
143
0.03937007874016
144
1.0
145
0.0
146
1.0
147
0.625
 71
     0
 72
     0
 73
     0
 74
     0
 75
     0
 76
     0
 77
     1
 78
     8
170
     0
171
     3
172
     1
173
     0
174
     0
175
     0
176
     0
177
     0
178
     0
  0
DIMSTYLE
  2
ISO-25
 70
     0
  3

  4

  5

  6

  7

 40
1.0
 41
2.5
 42
0.625
 43
3.75
 44
1.25
 45
0.0
 46
0.0
 47
0.0
 48
0.0
140
2.5
141
2.5
142
0.0
143
0.03937007874016
144
1.0
145
0.0
146
1.0
147
0.625
 71
     0
 72
     0
 73
     0
 74
     0
 75
     0
 76
     0
 77
     1
 78
     8
170
     0
171
     3
172
     1
173
     0
174
     0
175
     0
176
     0
177
     0
178
     0
  0
DIMSTYLE
  2
一般寸法-小さめ
 70
     0
  3

  4

  5
ORIGIN
  6

  7

 40
1.0
 41
3.0
 42
3.0
 43
1.0
 44
3.0
 45
0.0
 46
0.0
 47
0.0
 48
0.0
140
25.0
141
0.0
142
0.0
143
0.03937007874016
144
1.0
145
0.0
146
1.0
147
3.0
 71
     0
 72
     0
 73
     0
 74
     0
 75
     0
 76
     0
 77
     1
 78
     8
170
     0
171
     3
172
     1
173
     0
174
     0
175
     0
176
   256
177
   256
178
   256
  0
ENDTAB
  0
ENDSEC
  0
SECTION
  2
BLOCKS
  0
BLOCK
  8
0
  2
$MODEL_SPACE
 70
     0
 10
0.0
 20
0.0
 30
0.0
  3
$MODEL_SPACE
  1

  0
ENDBLK
  5
21
  8
0
  0
BLOCK
 67
     1
  8
0
  2
$PAPER_SPACE
 70
     0
 10
0.0
 20
0.0
 30
0.0
  3
$PAPER_SPACE
  1

  0
ENDBLK
  5
D5
 67
     1
  8
0
  0
BLOCK
  8
0
 62
   141
  2
_ORIGIN
 70
     0
 10
0.0
 20
0.0
 30
0.0
  3
_ORIGIN
  1

  0
CIRCLE
  5
31D
  8
0
  6
BYBLOCK
 62
     0
 10
0.0
 20
0.0
 30
0.0
 40
0.5
  0
LINE
  5
31E
  8
0
  6
BYBLOCK
 62
     0
 10
0.0
 20
0.0
 30
0.0
 11
-1.0
 21
0.0
 31
0.0
  0
ENDBLK
  5
31F
  8
0
 62
   141
  0
BLOCK
  8
0
  2
TEST
 70
     0
 10
0.0
 20
0.0
 30
0.0
  3
TEST
  1

  0
ENDBLK
  5
320
  8
0
  0
ENDSEC
  0
SECTION
  2
ENTITIES
999
****************以下に線などのエンティティをかく***********************
  0
LINE
  5
7d0
  8
k
 10
0.0
 20
-40.0
 30
-2.0
 11
0.0
 21
-41.0989
 31
-11.5486
39
16.0
210
-1.0
220
0.0
230
0.0
  0
LINE
  5
7d1
  8
k
 10
0.0
 20
-41.0989
 30
-11.5486
 11
0.0
 21
-43.1093
 31
-21.2905
39
16.0
210
-1.0
220
0.0
230
0.0
  0
LINE
  5
7d2
  8
k
 10
0.0
 20
-43.1093
 30
-21.2905
 11
0.0
 21
-46.07
 31
-31.0324
39
16.0
210
-1.0
220
0.0
230
0.0
  0
LINE
  5
7d3
  8
k
 10
0.0
 20
-46.07
 30
-31.0324
 11
0.0
 21
-50.0655
 31
-40.7743
39
16.0
210
-1.0
220
0.0
230
0.0
  0
LINE
  5
7d4
  8
k
 10
0.0
 20
-50.0655
 30
-40.7743
 11
0.0
 21
-55.2271
 31
-50.5162
39
16.0
210
-1.0
220
0.0
230
0.0
  0
LINE
  5
7d5
  8
k
 10
0.0
 20
-55.2271
 30
-50.5162
 11
0.0
 21
-61.7599
 31
-60.2581
39
16.0
210
-1.0
220
0.0
230
0.0
  0
LINE
  5
7d6
  8
k
 10
0.0
 20
-70.0
 30
-70.0
 11
0.0
 21
-61.7599
 31
-60.2581
39
16.0
210
-1.0
220
0.0
230
0.0
  0
LINE
  5
7d7
  8
k
 10
0.0
 20
40.0
 30
-2.0
 11
0.0
 21
41.0989
 31
-11.5486
39
16.0
210
-1.0
220
0.0
230
0.0
  0
LINE
  5
7d8
  8
k
 10
0.0
 20
41.0989
 30
-11.5486
 11
0.0
 21
43.1093
 31
-21.2905
39
16.0
210
-1.0
220
0.0
230
0.0
  0
LINE
  5
7d9
  8
k
 10
0.0
 20
43.1093
 30
-21.2905
 11
0.0
 21
46.07
 31
-31.0324
39
16.0
210
-1.0
220
0.0
230
0.0
  0
LINE
  5
7da
  8
k
 10
0.0
 20
46.07
 30
-31.0324
 11
0.0
 21
50.0655
 31
-40.7743
39
16.0
210
-1.0
220
0.0
230
0.0
  0
LINE
  5
7db
  8
k
 10
0.0
 20
50.0655
 30
-40.7743
 11
0.0
 21
55.2271
 31
-50.5162
39
16.0
210
-1.0
220
0.0
230
0.0
  0
LINE
  5
7dc
  8
k
 10
0.0
 20
55.2271
 30
-50.5162
 11
0.0
 21
61.7599
 31
-60.2581
39
16.0
210
-1.0
220
0.0
230
0.0
  0
LINE
  5
7dd
  8
k
 10
0.0
 20
61.7599
 30
-60.2581
 11
0.0
 21
70.0
 31
-70.0
39
16.0
210
-1.0
220
0.0
230
0.0
  0
LINE
  5
7de
  8
k
 10
0.0
 20
70.0
 30
-210.0
 11
0.0
 21
70.0
 31
-70.0
39
16.0
210
-1.0
220
0.0
230
0.0
  0
LINE
  5
7df
  8
k
 10
0.0
 20
70.0
 30
-210.0
 11
0.0
 21
-70.0
 31
-210.0
39
16.0
210
-1.0
220
0.0
230
0.0
  0
LINE
  5
7e0
  8
k
 10
0.0
 20
-70.0
 30
-210.0
 11
0.0
 21
-70.0
 31
-67.5515
39
16.0
210
-1.0
220
0.0
230
0.0
  0
LINE
  5
7e1
  8
k
 10
0.0
 20
-40.0
 30
-2.0
 11
0.0
 21
-40.0
 31
260.0
39
16.0
210
-1.0
220
0.0
230
0.0
  0
LINE
  5
7e2
  8
k
 10
0.0
 20
-40.0
 30
260.0
 11
0.0
 21
0.0
 31
260.0
39
16.0
210
-1.0
220
0.0
230
0.0
  0
LINE
  5
7e3
  8
k
 10
0.0
 20
0.0
 30
260.0
 11
0.0
 21
40.0
 31
130.0
39
16.0
210
-1.0
220
0.0
230
0.0
  0
LINE
  5
7e4
  8
k
 10
0.0
 20
40.0
 30
130.0
 11
0.0
 21
40.0
 31
-2.0
39
16.0
210
-1.0
220
0.0
230
0.0
  0
LINE
  5
7e5
  8
k
 10
-83.0
 20
-40.0
 30
0.0
 11
10.0
 21
-40.0
 31
0.0
39
16.0
210
0.0
220
-1.0
230
0.0
  0
LINE
  5
7e6
  8
k
 10
10.0
 20
-40.0
 30
0.0
 11
10.0
 21
-40.0
 31
260.0
39
16.0
210
0.0
220
-1.0
230
0.0
  0
LINE
  5
7e7
  8
k
 10
10.0
 20
-40.0
 30
260.0
 11
-83.0
 21
-40.0
 31
260.0
39
16.0
210
0.0
220
-1.0
230
0.0
  0
LINE
  5
7e8
  8
k
 10
-83.0
 20
-40.0
 30
260.0
 11
-83.0
 21
-40.0
 31
0.0
39
16.0
210
0.0
220
-1.0
230
0.0
 0
CIRCLE
  5
7e9
  8

 10
30.0
 20
-170.0
 30
0.0
39
0
 40
12.0
210
-1.0
220
0.0
230
0.0
 0
CIRCLE
  5
7ea
  8

 10
30.0
 20
-170.0
 30
16.0
39
0
 40
12.0
210
-1.0
220
0.0
230
0.0
 0
CIRCLE
  5
7eb
  8

 10
-30.0
 20
-170.0
 30
0.0
39
0
 40
12.0
210
-1.0
220
0.0
230
0.0
 0
CIRCLE
  5
7ec
  8

 10
-30.0
 20
-170.0
 30
16.0
39
0
 40
12.0
210
-1.0
220
0.0
230
0.0
 0
CIRCLE
  5
7ed
  8

 10
30.0
 20
-110.0
 30
0.0
39
0
 40
12.0
210
-1.0
220
0.0
230
0.0
 0
CIRCLE
  5
7ee
  8

 10
30.0
 20
-110.0
 30
16.0
39
0
 40
12.0
210
-1.0
220
0.0
230
0.0
 0
CIRCLE
  5
7ef
  8

 10
-30.0
 20
-110.0
 30
0.0
39
0
 40
12.0
210
-1.0
220
0.0
230
0.0
 0
CIRCLE
  5
7f0
  8

 10
-30.0
 20
-110.0
 30
16.0
39
0
 40
12.0
210
-1.0
220
0.0
230
0.0
 0
CIRCLE
  5
7f1
  8

 10
-55.0
 20
40.0
 30
40.0
39
0
 40
12.0
210
0.0
220
-1.0
230
0.0
 0
CIRCLE
  5
7f2
  8

 10
-55.0
 20
40.0
 30
56.0
39
0
 40
12.0
210
0.0
220
-1.0
230
0.0
 0
CIRCLE
  5
7f3
  8

 10
-55.0
 20
100.0
 30
40.0
39
0
 40
12.0
210
0.0
220
-1.0
230
0.0
 0
CIRCLE
  5
7f4
  8

 10
-55.0
 20
100.0
 30
56.0
39
0
 40
12.0
210
0.0
220
-1.0
230
0.0
 0
CIRCLE
  5
7f5
  8

 10
-55.0
 20
160.0
 30
40.0
39
0
 40
12.0
210
0.0
220
-1.0
230
0.0
 0
CIRCLE
  5
7f6
  8

 10
-55.0
 20
160.0
 30
56.0
39
0
 40
12.0
210
0.0
220
-1.0
230
0.0
 0
CIRCLE
  5
7f7
  8

 10
-55.0
 20
220.0
 30
40.0
39
0
 40
12.0
210
0.0
220
-1.0
230
0.0
 0
CIRCLE
  5
7f8
  8

 10
-55.0
 20
220.0
 30
56.0
39
0
 40
12.0
210
0.0
220
-1.0
230
0.0
999
****************以下に線などのエンティティをかく***********************
  0
ENDSEC
  0
EOF
